<?xml version="1.0" encoding="UTF-8" standalone="no"?>
<!-- Created with Inkscape (http://www.inkscape.org/) -->

<svg
   xmlns:dc="http://purl.org/dc/elements/1.1/"
   xmlns:cc="http://creativecommons.org/ns#"
   xmlns:rdf="http://www.w3.org/1999/02/22-rdf-syntax-ns#"
   xmlns:svg="http://www.w3.org/2000/svg"
   xmlns="http://www.w3.org/2000/svg"
   xmlns:sodipodi="http://sodipodi.sourceforge.net/DTD/sodipodi-0.dtd"
   xmlns:inkscape="http://www.inkscape.org/namespaces/inkscape"
   version="1.1"
   id="svg3888"
   width="85.333336"
   height="66.666664"
   viewBox="0 0 85.333336 66.666664"
   sodipodi:docname="icon_cursoemvideo.png">
  <metadata
     id="metadata3894">
    <rdf:RDF>
      <cc:Work
         rdf:about="">
        <dc:format>image/svg+xml</dc:format>
        <dc:type
           rdf:resource="http://purl.org/dc/dcmitype/StillImage" />
      </cc:Work>
    </rdf:RDF>
  </metadata>
  <defs
     id="defs3892" />
  <sodipodi:namedview
     pagecolor="#ffffff"
     bordercolor="#666666"
     borderopacity="1"
     objecttolerance="10"
     gridtolerance="10"
     guidetolerance="10"
     inkscape:pageopacity="0"
     inkscape:pageshadow="2"
     inkscape:window-width="640"
     inkscape:window-height="480"
     id="namedview3890"
     showgrid="false" />
  <path
     style="fill:#fefefe;stroke-width:1.33333337"
     d="m 31.615814,65.117352 c -1.46666,-0.666826 -5.68953,-1.254584 -9.38415,-1.306126 C 12.469044,63.67503 4.0211838,59.085114 2.4269338,53.050846 0.35682378,45.215471 -0.07446622,14.596245 1.7960438,8.2612196 c 1.991,-6.7431 4.61843,-7.71475498 19.8197702,-7.32957898 21.61498,0.54768698 33.01342,0.39565698 40.9644,-0.546373 5.57653,-0.660705 10.20339,-0.420442 14.10861,0.73263198 5.16324,1.524524 5.99313,2.333043 7.44627,7.254522 1.8497,6.2645424 1.37631,37.0433214 -0.68642,44.6298064 -2.24494,8.256625 -10.82858,11.04712 -39.16619,12.732712 -5.5,0.327155 -11.2,0.04924 -12.66667,-0.617588 z m 15.23745,-28.529376 5.50965,-3.129537 -5.34496,-3.537129 c -2.93973,-1.945421 -5.87932,-3.537129 -6.53243,-3.537129 -1.05394,0 -2.8157,7.19917 -2.85503,11.666666 -0.0221,2.511662 3.09629,2.017037 9.22277,-1.462871 z"
     id="path3906"
     inkscape:connector-curvature="0"
     inkscape:export-xdpi="96"
     inkscape:export-ydpi="96" />
</svg>
